<svg width="187" height="69" viewBox="0 0 187 69" fill="none" xmlns="http://www.w3.org/2000/svg">
<g clip-path="url(#clip0_480_643)">
<path d="M122.695 32.6808L122.88 31.0168L127.063 29.8443L123.242 27.7923L123.428 26.1369L129.206 26.7835L129.046 28.1889L125.579 27.8009L128.9 29.4821L128.775 30.6159L125.157 31.5255L128.628 31.9135L128.468 33.3188L122.69 32.6722L122.695 32.6808Z" fill="#F55000"/>
<path d="M130.275 21.2483L129.421 23.2443L130.228 23.9685L129.646 25.3307L125.127 21.1147L125.769 19.6059L131.94 19.9551L131.349 21.3346L130.267 21.2527L130.275 21.2483ZM126.886 20.9811L128.563 22.4726L129.128 21.1535L126.89 20.9811H126.886Z" fill="#F55000"/>
<path d="M128.128 15.3597L128.93 14.1957L133.716 17.4936L132.914 18.6575L128.128 15.3597Z" fill="#F55000"/>
<path d="M136.446 14.4156C135.562 15.2993 134.432 15.5494 133.57 14.7475L134.635 13.6828C134.98 13.9716 135.329 13.9242 135.614 13.644C135.907 13.3508 135.946 13.0189 135.708 12.7775C134.949 12.0144 133.302 14.4803 131.858 13.0103C131.082 12.23 131.284 11.1609 132.147 10.303C133.044 9.40636 134.091 9.25117 134.915 9.99264L133.833 11.0747C133.552 10.8289 133.207 10.8591 132.931 11.1221C132.686 11.3549 132.625 11.6609 132.884 11.9196C133.6 12.6352 135.307 10.2815 136.683 11.6566C137.373 12.3464 137.407 13.4586 136.446 14.4199V14.4156Z" fill="#F55000"/>
<path d="M159.597 6.57411L160.697 8.2338L158.993 8.04843L158.364 6.97071C158.152 6.98795 157.937 6.99226 157.717 6.9664C156.078 6.78534 154.884 5.41448 155.074 3.6815C155.263 1.94853 156.729 0.875118 158.368 1.05617C160.015 1.23723 161.188 2.59516 160.998 4.33245C160.886 5.3455 160.352 6.12577 159.601 6.57842L159.597 6.57411ZM157.855 5.68606C158.778 5.78521 159.45 5.186 159.562 4.17725C159.675 3.15126 159.144 2.43566 158.226 2.3322C157.29 2.22874 156.626 2.81502 156.51 3.84101C156.397 4.85406 156.919 5.5826 157.855 5.68606V5.68606Z" fill="#F55000"/>
<path d="M164.422 2.30634L165.737 2.82795L164.457 6.06112C164.202 6.69913 164.375 7.19488 164.996 7.4406C165.621 7.68632 166.095 7.44922 166.35 6.81121L167.63 3.57805L168.946 4.09966L167.669 7.3242C167.078 8.81577 165.742 9.1434 164.491 8.64764C163.236 8.15189 162.551 7.02675 163.142 5.53519L164.418 2.31065L164.422 2.30634Z" fill="#F55000"/>
<path d="M174.064 8.68213L172.305 7.45784L171.632 8.42347L173.189 9.5055L172.563 10.4022L171.007 9.32014L170.278 10.3677L172.037 11.592L171.39 12.5231L168.471 10.4884L171.791 5.72055L174.711 7.75529L174.064 8.68644V8.68213Z" fill="#F55000"/>
<path d="M181.17 14.5622C181.963 15.6959 181.925 16.9935 181.084 17.9893L180.191 16.7133C180.459 16.2305 180.411 15.7304 180.105 15.2907C179.605 14.5794 178.734 14.463 177.893 15.0493C177.052 15.6399 176.867 16.4978 177.363 17.2091C177.673 17.6488 178.126 17.8643 178.669 17.7781L179.562 19.0541C178.341 19.5024 177.112 19.0929 176.319 17.9591C175.336 16.5581 175.638 14.8682 177.061 13.8724C178.484 12.8766 180.183 13.1611 181.166 14.5665L181.17 14.5622Z" fill="#F55000"/>
<path d="M182.196 24.3867L181.455 22.3132L179.199 23.1193L178.721 21.7872L184.193 19.8258L184.671 21.1578L182.528 21.9252L183.27 23.9987L185.413 23.2314L185.892 24.5634L180.42 26.5249L179.941 25.1928L182.192 24.3867H182.196Z" fill="#F55000"/>
<path d="M186.603 27.9L186.72 29.3097L183.253 29.5942C182.567 29.6502 182.201 30.021 182.252 30.6892C182.309 31.3574 182.731 31.6807 183.417 31.6246L186.884 31.3401L187 32.7498L183.542 33.0343C181.942 33.1636 181.058 32.1074 180.946 30.7711C180.834 29.4261 181.541 28.3139 183.145 28.1802L186.603 27.8957V27.9Z" fill="#F55000"/>
<path d="M186.435 38.4402C186.198 39.8455 185.271 40.4102 184.275 40.2421C183.555 40.1214 182.947 39.617 182.83 38.6902L180.338 39.63L180.605 38.0522L182.973 37.2245L183.029 36.8882L180.864 36.5261L181.101 35.1294L186.836 36.095L186.439 38.4402H186.435ZM185.288 38.1643L185.435 37.2978L184.012 37.0564L183.865 37.9228C183.779 38.4445 184.007 38.7376 184.456 38.8109C184.878 38.8842 185.198 38.6859 185.288 38.1599V38.1643Z" fill="#F55000"/>
<path d="M184.219 45.7945C183.654 47.105 182.623 47.4327 181.692 47.0361C181.023 46.7472 180.549 46.1135 180.657 45.1867L178.014 45.51L178.643 44.04L181.136 43.7943L181.269 43.4839L179.251 42.6174L179.812 41.3155L185.154 43.6132L184.214 45.7945H184.219ZM183.171 45.2557L183.516 44.4495L182.192 43.8805L181.847 44.6866C181.636 45.1738 181.791 45.51 182.209 45.6911C182.606 45.8592 182.964 45.7428 183.171 45.2557Z" fill="#F55000"/>
<path d="M175.737 50.5106L177.065 48.7949L176.466 47.8896L177.376 46.717L180.679 51.9418L179.674 53.2351L173.792 51.334L174.711 50.1485L175.737 50.502V50.5106ZM178.945 51.6271L177.699 49.7605L176.819 50.89L178.941 51.6271H178.945Z" fill="#F55000"/>
<path d="M170.925 53.6058C171.912 52.8385 173.064 52.7264 173.818 53.6317L172.628 54.5585C172.322 54.2309 171.968 54.2352 171.653 54.4766C171.326 54.731 171.244 55.0586 171.455 55.3259C172.115 56.1751 174.051 53.9335 175.306 55.5673C175.983 56.4338 175.646 57.4727 174.685 58.2228C173.684 58.9988 172.628 59.0289 171.899 58.1883L173.107 57.2485C173.357 57.5287 173.702 57.5417 174.008 57.3132C174.28 57.1106 174.374 56.8174 174.154 56.5286C173.534 55.7311 171.546 57.8564 170.351 56.3217C169.752 55.55 169.855 54.4421 170.925 53.6101V53.6058Z" fill="#F55000"/>
<path d="M167.673 62.3785C166.406 62.9303 165.138 62.6372 164.332 61.6155L165.759 60.9904C166.177 61.3482 166.682 61.3999 167.173 61.1844C167.971 60.8352 168.256 60.0075 167.846 59.0634C167.436 58.1237 166.63 57.7702 165.832 58.1194C165.341 58.3349 165.034 58.7401 165.017 59.2876L163.59 59.9127C163.387 58.628 164.038 57.5029 165.306 56.9511C166.876 56.2657 168.471 56.8951 169.17 58.4901C169.864 60.0851 169.247 61.6888 167.678 62.3742L167.673 62.3785Z" fill="#F55000"/>
<path d="M158.372 58.8737C160.007 58.6539 161.499 59.6971 161.736 61.4258C161.969 63.1587 160.804 64.5512 159.17 64.771C157.527 64.9909 156.061 63.9563 155.824 62.2233C155.591 60.4903 156.738 59.0936 158.372 58.8737V58.8737ZM158.545 60.1541C157.626 60.2791 157.118 61.0249 157.251 62.0336C157.389 63.0596 158.075 63.6286 158.998 63.5036C159.933 63.3786 160.438 62.6501 160.3 61.6241C160.162 60.6153 159.485 60.029 158.549 60.1541H158.545Z" fill="#F55000"/>
<path d="M161.542 13.437C161.542 13.437 163.793 17.6401 163.68 21.701C163.517 21.188 162.74 19.6145 162.495 19.2308C161.067 16.9892 158.976 15.2433 156.824 13.8034C156.121 13.3336 154.992 12.6481 154.371 12.2688C153.84 11.9455 153.297 11.5876 152.767 11.1997C150.662 9.65206 148.757 7.54404 148.537 4.48331C148.446 3.22022 148.394 1.72866 148.739 0.00430298C147.347 0.706977 145.876 1.91402 144.742 3.16849C142.038 6.16456 140.283 10.1306 140.094 13.825C140.016 15.3209 140.128 16.7435 140.421 18.1574C140.529 18.6747 140.702 19.3128 140.857 19.774C141.051 20.356 141.366 21.2139 141.866 22.3907C141.935 22.5502 142.59 23.8047 142.603 24.7143C142.629 26.499 141.159 27.9431 139.374 27.9431C138.261 27.9431 137.218 27.4431 136.648 26.5766C136.347 26.1153 136.053 25.4213 136.027 24.6453C135.963 24.7962 135.864 25.029 135.639 25.5592C134.742 27.8483 134.277 30.3529 134.277 32.961C134.277 44.3461 143.509 53.5757 154.897 53.5757C166.285 53.5757 175.517 44.3461 175.517 32.961C175.517 23.8995 169.666 16.2003 161.537 13.437H161.542ZM142.22 13.8724C142.401 10.303 144.212 6.84136 146.316 4.53504C146.717 10.0271 151.391 12.9844 153.59 14.2906C157.165 16.4201 159.86 18.5497 161.231 21.3561C162.404 23.7487 162.939 27.4733 159.334 31.8359C158.178 33.2369 156.742 34.75 155.156 36.2416C152.926 38.341 150.524 40.643 148.532 43.9667C149.248 38.3194 148.688 33.9913 147.321 30.0641C146.635 28.0854 145.751 25.8049 144.794 23.7185C143.388 20.6577 142.806 18.9377 142.642 18.2954C142.28 16.8555 142.138 15.4071 142.215 13.8724H142.22ZM146.062 49.2346C141.193 46.5834 137.778 41.8544 136.726 36.4873C136.592 35.8062 136.497 35.1121 136.441 34.4095C136.433 34.3189 136.385 32.9955 136.385 32.9179C136.385 32.7412 136.398 32.1592 136.407 32.0169C136.459 30.9651 136.61 29.9391 136.834 28.9433C137.575 29.4606 138.477 29.7623 139.451 29.7623C141.788 29.7623 143.711 28.0207 144.005 25.7618C144.16 26.1455 144.345 26.6025 144.526 27.012C144.595 27.1629 144.664 27.3181 144.729 27.4689C147.209 33.2455 148.459 39.2592 146.066 49.2303L146.062 49.2346ZM154.901 51.4806C152.305 51.4806 149.809 50.9503 147.459 49.9157C149.481 43.6606 152.875 40.4275 156.165 37.3021C156.182 37.2848 156.203 37.2676 156.221 37.2503C160.205 39.1126 163.853 43.4666 165.414 48.2043C162.314 50.3511 158.687 51.4849 154.901 51.4849V51.4806ZM166.639 47.2818C164.944 42.5657 161.343 38.2505 157.346 36.1726C167.682 26.4516 165.608 20.6621 164.815 17.3211C170.123 20.6793 173.421 26.5464 173.421 32.9653C173.421 38.5091 170.903 43.777 166.639 47.2818V47.2818Z" fill="#F55000"/>
<path d="M15.1827 50.502H11.8107C11.4183 50.502 11.1121 50.6615 10.8361 51.0064L3.20815 61.3525V50.5063L0 50.4977V68.9957H3.20815V67.0515C3.20815 66.9696 3.23403 66.8877 3.28146 66.8187L6.35163 62.6113L10.8232 68.4827C11.0561 68.8664 11.5563 68.9957 11.7546 68.9957L15.2301 68.9871L8.32654 59.904L15.187 50.4934L15.1827 50.502Z" fill="#FBF9F7"/>
<path d="M64.7625 69H68.0008V59.8997H75.4261C75.715 59.8997 75.9479 59.6669 75.9479 59.3781V57.2701H68.0051V53.3041C68.0051 53.2567 68.0439 53.2135 68.0957 53.2135H77.1423C77.4312 53.2135 77.6641 52.9808 77.6641 52.6919V50.4934H64.7711V68.9914L64.7625 69Z" fill="#FBF9F7"/>
<path d="M107.094 66.2799H97.5037C97.4563 66.2755 97.4131 66.2324 97.4131 66.185V59.6497H104.782C104.92 59.654 105.054 59.6023 105.149 59.5031C105.248 59.404 105.3 59.2747 105.3 59.1367V57.0589H97.4088V53.3386C97.4088 53.3084 97.4261 53.2869 97.4347 53.2739C97.4433 53.2653 97.4735 53.2437 97.4994 53.2481L106.266 53.2739C106.404 53.2739 106.533 53.2222 106.632 53.123C106.731 53.0239 106.783 52.8946 106.783 52.7566V50.4977H94.136V68.9957H107.607V66.7972C107.607 66.5083 107.374 66.2755 107.085 66.2755L107.094 66.2799Z" fill="#FBF9F7"/>
<path d="M133.281 61.4344C133.535 61.2663 134.031 60.943 134.402 60.6671C136.838 58.8565 137.325 57.4813 137.325 55.8475C137.325 52.804 135.018 50.5106 131.957 50.5106C130.603 50.5106 124.251 50.502 124.251 50.502H124.036V69H127.244V65.8229C127.244 65.6548 127.326 65.4953 127.468 65.4004L131.004 63.0122L133.953 68.4655C134.1 68.7543 134.316 68.8793 134.471 68.931C134.682 69.0043 134.945 69.0043 135.083 69C135.601 69 137.023 68.9957 137.023 68.9957H137.386L133.281 61.4387V61.4344ZM134.41 55.8518C134.41 56.8131 133.927 57.4986 132.573 58.4771C132.285 58.6841 128.468 61.1111 127.317 61.8439L127.248 53.3644H131.586C132.5 53.3558 133.246 53.6102 133.742 54.0973C134.182 54.5327 134.415 55.1362 134.415 55.8475L134.41 55.8518Z" fill="#FBF9F7"/>
<path d="M41.3739 50.9245C41.292 50.7434 41.1842 50.502 40.8565 50.502H37.9028C37.575 50.502 37.4629 50.7477 37.381 50.9417L30.7146 69.0043H33.6511C33.8494 68.9914 34.0047 68.7931 34.0607 68.6207L34.8542 66.7929C34.8542 66.7929 34.88 66.7627 34.9016 66.7627H43.8577C43.8577 66.7627 43.8965 66.7756 43.9051 66.7929L44.6942 68.6034C44.7589 68.7931 44.9098 68.9914 45.1254 69.0087H48.049L41.3826 50.946V50.9331L41.3739 50.9245ZM39.3732 54.3516L42.7667 63.6373H35.9796L39.3732 54.3516V54.3516Z" fill="#FBF9F7"/>
</g>
<defs>
<clipPath id="clip0_480_643">
<rect width="187" height="69" fill="white"/>
</clipPath>
</defs>
</svg>